<?xml version="1.0" encoding="UTF-8" standalone="no"?><!-- Generator: Gravit.io --><svg xmlns="http://www.w3.org/2000/svg" xmlns:xlink="http://www.w3.org/1999/xlink" style="isolation:isolate" viewBox="0 0 1366 768" width="1366pt" height="768pt"><defs><clipPath id="_clipPath_uLU9MUUIiQN8E8ugjC2ERNHGRj1kMixH"><rect width="1366" height="768"/></clipPath></defs><g clip-path="url(#_clipPath_uLU9MUUIiQN8E8ugjC2ERNHGRj1kMixH)"><rect width="1366" height="768" style="fill:rgb(253,249,242)"/><path d=" M 712 0 C 471.616 395.217 752.243 327.484 778 537.09 Q 803.757 746.696 528 771 L 1369 771 L 1371 0 L 1236.444 0 L 695 0" fill="rgb(232,232,232)" vector-effect="non-scaling-stroke" stroke-width="1" stroke="rgb(255,255,255)" stroke-linejoin="miter" stroke-linecap="square" stroke-miterlimit="3"/><g style="isolation:isolate"/><g style="isolation:isolate"><g opacity="0.45"><ellipse vector-effect="non-scaling-stroke" cx="1320.0000000000002" cy="693.9999999999999" rx="134.00000000000023" ry="133" fill="rgb(249,168,38)"/></g><g opacity="0.6"><path d=" M 161 -1 Q 260.901 136.466 -2 154 L -2 -1 Q 61.099 -138.466 161 -1 Z " fill="rgb(239,203,144)" vector-effect="non-scaling-stroke" stroke-width="1" stroke="rgb(255,255,255)" stroke-linejoin="miter" stroke-linecap="square" stroke-miterlimit="3"/></g><g opacity="0.13"><ellipse vector-effect="non-scaling-stroke" cx="388.75435699790887" cy="347" rx="200.24564300209113" ry="193" fill="rgb(239,203,144)"/></g><g><ellipse vector-effect="non-scaling-stroke" cx="398.01282517266" cy="540.4175984126529" rx="157.4786907400105" ry="28.582401587347164" fill="rgb(63,61,86)"/><path d=" M 293.211 355.353 C 313.895 323.764 309.019 281.388 281.734 255.626 C 254.45 229.863 212.94 228.44 184.044 252.276 C 155.148 276.112 147.533 318.06 166.121 350.996 C 184.71 383.932 223.928 397.979 258.418 384.054 C 261.397 394.978 271.182 402.457 282.223 402.247 C 293.264 402.038 302.773 394.193 305.358 383.163 C 307.942 372.133 302.949 360.702 293.211 355.353 L 293.211 355.353 Z " fill="rgb(249,168,38)"/><rect x="186.313" y="296.943" width="89.202" height="7.235" transform="matrix(1,0,0,1,0,0)" fill="rgb(255,255,255)"/><rect x="186.313" y="309.001" width="89.202" height="7.235" transform="matrix(1,0,0,1,0,0)" fill="rgb(255,255,255)"/><rect x="186.313" y="321.06" width="89.202" height="7.235" transform="matrix(1,0,0,1,0,0)" fill="rgb(255,255,255)"/><path d=" M 452.789 298.045 C 432.105 266.456 436.981 224.08 464.266 198.317 C 491.55 172.555 533.06 171.132 561.956 194.968 C 590.852 218.804 598.467 260.751 579.879 293.687 C 561.29 326.623 522.072 340.67 487.582 326.746 C 484.603 337.67 474.818 345.149 463.777 344.939 C 452.736 344.73 443.227 336.885 440.642 325.855 C 438.058 314.825 443.051 303.394 452.789 298.045 Z " fill="rgb(249,168,38)"/><rect x="470.485" y="239.634" width="89.202" height="7.235" transform="matrix(-1,0,0,-1,1030.172,486.504)" fill="rgb(255,255,255)"/><rect x="470.485" y="251.693" width="89.202" height="7.235" transform="matrix(-1,0,0,-1,1030.172,510.621)" fill="rgb(255,255,255)"/><rect x="470.485" y="263.751" width="89.202" height="7.235" transform="matrix(-1,0,0,-1,1030.172,534.738)" fill="rgb(255,255,255)"/><path d=" M 322.573 508.918 C 311.025 491.282 313.747 467.624 328.98 453.241 C 344.212 438.858 367.387 438.064 383.519 451.371 C 399.651 464.679 403.903 488.097 393.525 506.485 C 383.147 524.873 361.252 532.715 341.997 524.941 C 340.334 531.04 334.871 535.215 328.707 535.098 C 322.543 534.981 317.234 530.602 315.791 524.444 C 314.348 518.286 317.136 511.904 322.573 508.918 L 322.573 508.918 Z " fill="rgb(249,168,38)"/><ellipse vector-effect="non-scaling-stroke" cx="340.8667434813005" cy="483.9272874706463" rx="4.844769388559314" ry="4.977470524354544" fill="rgb(255,255,255)"/><ellipse vector-effect="non-scaling-stroke" cx="357.39596209425827" cy="483.9272874706463" rx="4.844769388559314" ry="4.977470524354544" fill="rgb(255,255,255)"/><ellipse vector-effect="non-scaling-stroke" cx="373.9251858118738" cy="483.9272874706463" rx="4.844769388559314" ry="4.977470524354544" fill="rgb(255,255,255)"/><path d=" M 362.248 329.513 C 362.248 329.513 383.864 330.117 387.434 331.451 C 387.434 331.451 392.601 342.328 392.601 342.328 L 375.817 347.748 L 363.264 347.017 L 353.816 347.703 L 359.091 333.509 L 362.248 329.513 Z " fill="rgb(47,46,65)"/><path d=" M 363.18 322.226 C 363.18 322.226 364.602 327.869 361.446 331.865 C 358.289 335.861 375.015 350.1 375.015 350.1 L 383.839 348.542 C 383.839 348.542 381.894 331.201 384.506 326.81 C 387.118 322.419 363.18 322.226 363.18 322.226 Z " fill="rgb(159,97,106)"/><g opacity="0.1"><path d=" M 363.18 322.226 C 363.18 322.226 364.602 327.869 361.446 331.865 C 358.289 335.861 375.015 350.1 375.015 350.1 L 383.839 348.542 C 383.839 348.542 381.894 331.201 384.506 326.81 C 387.118 322.419 363.18 322.226 363.18 322.226 Z " fill="rgb(0,0,0)"/></g><path d=" M 421.862 487.227 L 402.393 513.752 L 415.68 521.721 L 433.965 490.984 L 421.862 487.227 L 421.862 487.227 Z " fill="rgb(159,97,106)"/><path d=" M 408.206 514.199 C 408.206 514.199 401.036 505.641 401.356 507.549 C 401.356 507.549 396.255 525.643 401.298 527.208 C 401.298 527.208 449.588 532.926 450.183 527.909 C 450.778 522.892 437.281 519.38 437.281 519.38 C 437.281 519.38 429.263 511.463 427.485 512.268 C 425.708 513.074 408.206 514.199 408.206 514.199 Z " fill="rgb(47,46,65)"/><path d=" M 417.494 512.559 L 433.044 539.777 L 444.784 532.792 L 429.104 510.509 L 417.494 512.559 L 417.494 512.559 Z " fill="rgb(159,97,106)"/><path d=" M 442.041 447.805 L 437.426 454.514 C 437.426 454.514 415.425 485.908 417.762 488.442 C 417.762 488.442 429.829 500.557 434.778 498.7 C 439.727 496.844 457.309 464.758 457.309 464.758 L 452.723 445.919 L 442.041 447.805 Z " fill="rgb(47,46,65)"/><path d=" M 347.267 441.454 C 347.267 441.454 352.194 450.899 364.682 454.097 C 364.682 454.097 390.217 463.833 390.682 463.751 C 390.682 463.751 392.459 462.946 392.779 464.855 C 392.779 464.855 396.523 470.088 396.523 470.088 C 396.523 470.088 410.317 518.247 415.585 518.3 C 415.585 518.3 431.68 514.475 431.905 512.962 C 431.905 512.962 415.774 462.268 415.614 461.313 L 413.698 449.863 C 413.698 449.863 435.329 453.411 437.347 454.037 C 439.364 454.664 457.309 464.758 457.309 464.758 C 457.309 464.758 475.602 451.212 458.491 437.532 C 441.381 423.852 411.971 413.818 411.971 413.818 L 401.421 410.769 L 392.226 410.205 L 390.872 404.871 L 369.094 406.162 L 346.368 416.069 L 347.267 441.454 Z " fill="rgb(47,46,65)"/><ellipse vector-effect="non-scaling-stroke" cx="376.00908065257244" cy="316.03043207809986" rx="16.96354841527898" ry="17.428190168329195" fill="rgb(159,97,106)"/><path d=" M 360.662 330.038 L 362.702 329.678 C 362.702 329.678 366.387 344.255 377.787 346.663 C 377.787 346.663 383.412 339.74 383.172 338.572 C 382.932 337.404 387.626 331.172 390.123 334.66 C 392.619 338.149 389.513 399.608 391.61 400.712 C 393.707 401.815 398.206 402.986 394.585 407.063 C 390.964 411.141 376.583 416.628 373.397 414.735 C 370.212 412.841 363.703 396.798 360.887 391.401 C 358.072 386.003 353.566 367.641 353.566 367.641 C 353.566 367.641 347.811 347.535 351.352 342.98 C 354.893 338.425 360.662 330.038 360.662 330.038 Z " fill="rgb(208,205,225)"/><path d=" M 376.897 405.701 C 376.518 409.982 375.869 414.233 374.954 418.428 C 374.122 421.841 373.153 423.902 372.048 423.814 C 369.227 423.598 367.945 427.848 367.284 432.748 C 366.578 437.947 366.578 443.877 366.19 445.973 C 365.677 448.742 362.395 450.855 355.836 450.235 C 351.93 449.778 348.097 448.812 344.428 447.36 C 335.573 444.053 335.835 417.228 337.317 397.323 C 338.223 385.123 339.585 375.516 339.585 375.516 C 339.585 375.516 336.895 367.273 336.035 361.623 C 335.864 360.593 335.778 359.549 335.778 358.503 C 335.91 353.568 344.679 340.232 349.979 331.924 C 355.284 323.617 362.52 329.711 362.52 329.711 L 360.002 337.521 C 360.002 337.521 363.905 343.709 363.934 349.599 C 363.934 349.599 373.279 359.738 376.624 362.589 C 378.726 364.381 378.675 388.296 376.897 405.701 Z " fill="rgb(47,46,65)"/><path d=" M 384.263 332.502 C 384.263 332.502 384.874 333.245 387.674 332.882 C 391.03 332.448 395.646 333.641 396.718 336.934 C 398.685 342.973 404.229 367.537 404.229 367.537 C 404.229 367.537 406.536 395.62 407.574 401.823 C 408.612 408.025 408.096 413.519 409.12 416.777 C 410.143 420.035 399.019 410.701 394.919 411.917 C 390.819 413.132 388.185 397.387 388.7 391.893 C 389.216 386.398 389.651 380.427 388.229 374.783 C 386.807 369.14 389.328 354.204 389.234 350.782 C 389.139 347.36 380.194 338.736 384.263 332.502 Z " fill="rgb(47,46,65)"/><path d=" M 396.266 419.784 C 396.266 419.784 414.227 429.851 415.946 444.18 C 417.665 458.509 391.922 430.306 391.922 430.306 L 396.266 419.784 Z " fill="rgb(159,97,106)"/><path d=" M 406.519 409.623 C 406.519 409.623 412.023 438.124 420.596 436.61 C 420.596 436.61 415.807 407.983 415.807 407.983 L 406.519 409.623 Z " fill="rgb(159,97,106)"/><path d=" M 435.881 533.873 C 435.881 533.873 431.491 539.069 430.403 538.279 C 430.403 538.279 426.811 548.246 429.067 550.304 C 429.067 550.304 440.017 555.739 440.111 559.16 C 440.111 559.16 463.52 561.904 464.355 558.318 C 464.355 558.318 461.43 546.554 458.789 545.055 C 458.789 545.055 446.382 529.765 446.382 529.765 C 446.382 529.765 438.733 530.913 435.881 533.873 Z " fill="rgb(47,46,65)"/><g opacity="0.1"><path d=" M 393.405 437.215 C 389.24 434.194 377.609 433.445 367.284 432.748 C 362.754 432.449 358.475 432.157 355.187 431.682 C 352.019 431.232 349.169 428.258 346.639 423.826 C 342.804 417.111 339.705 407.041 337.317 397.323 C 338.223 385.123 339.585 375.516 339.585 375.516 C 339.585 375.516 336.895 367.273 336.035 361.623 C 336.641 360.756 337.423 360.033 338.326 359.504 C 349.278 354.674 359.734 402.206 361.062 409.664 C 361.085 409.787 361.102 409.904 361.119 410.004 C 361.763 413.844 368.72 417.129 374.954 418.428 C 378.795 419.23 382.368 419.283 384.014 418.241 C 388.339 415.513 401.639 426.431 402.648 426.741 C 403.656 427.058 399.388 441.565 393.405 437.215 Z " fill="rgb(0,0,0)"/></g><path d=" M 338.327 356.578 C 338.327 356.578 330.367 360.44 333.865 378.489 C 333.865 378.489 344.408 427.222 355.184 428.758 C 355.184 428.758 387.416 429.943 393.403 434.289 C 393.403 434.289 403.656 424.128 402.647 423.815 C 402.647 423.815 388.338 412.588 384.013 415.316 C 384.013 415.316 362.157 413.281 361.119 407.078 C 360.082 400.876 349.459 351.665 338.327 356.578 Z " fill="rgb(47,46,65)"/><path d=" M 395.688 347.923 L 404.436 368.779 C 404.436 368.779 405.317 368.327 406.34 371.585 C 406.34 371.585 407.842 377.706 409.635 379.845 C 409.635 379.845 419.402 412.506 419.641 413.937 C 419.641 413.937 408.627 420.303 406.112 416.326 C 403.598 412.349 395.688 347.923 395.688 347.923 Z " fill="rgb(47,46,65)"/><path d=" M 366.358 315.788 C 367.008 315.609 367.104 314.723 367.125 314.032 C 367.242 310.332 369.411 306.535 372.858 305.458 C 374.181 305.085 375.566 305.007 376.921 305.228 C 378.855 305.492 380.722 306.132 382.423 307.114 C 383.321 307.632 384.201 308.257 385.22 308.415 C 385.893 308.52 388.805 309.39 389.475 309.512 C 390.947 309.782 392.316 311.135 393.729 310.631 C 395.081 310.15 395.38 308.351 395.413 306.882 C 395.487 303.533 393.013 298.899 390.834 296.408 C 389.18 294.518 386.69 293.645 384.256 293.191 C 381.413 292.722 378.531 292.542 375.653 292.654 C 371.758 292.725 367.754 293.034 364.242 294.766 C 360.729 296.497 357.779 299.944 357.61 303.943 C 357.575 304.776 357.659 305.612 357.591 306.443 C 357.424 308.47 356.377 310.301 355.885 312.271 C 355.175 315.195 355.701 318.291 357.335 320.794 C 358.639 322.765 360.687 324.547 360.612 326.929 L 363.439 323.92 C 364.309 323.238 364.596 322.024 364.129 321.007 L 363.129 316.997 C 362.871 316.282 362.841 315.501 363.042 314.766 C 364.115 312.043 365.274 316.085 366.358 315.788 Z " fill="rgb(47,46,65)"/><path d=" M 494.821 516.304 C 494.704 516.108 491.942 511.369 490.984 501.53 C 490.106 492.502 490.67 477.286 498.351 456.061 C 512.903 415.851 494.998 383.407 494.815 383.084 L 495.698 382.558 C 495.745 382.64 500.365 390.912 503.094 404.083 C 506.7 421.546 505.387 439.703 499.308 456.427 C 484.782 496.568 495.582 515.57 495.692 515.758 L 494.821 516.304 Z " fill="rgb(63,61,86)"/><ellipse vector-effect="non-scaling-stroke" cx="489.1309655197974" cy="373.9054423762727" rx="6.636055039287328" ry="6.817820562119493" fill="rgb(249,168,38)"/><ellipse vector-effect="non-scaling-stroke" cx="510.06006218216487" cy="399.0789336825601" rx="6.6360550392872995" ry="6.817820562119493" fill="rgb(63,61,86)"/><ellipse vector-effect="non-scaling-stroke" cx="495.7670205590846" cy="415.8612612200851" rx="6.636055039287328" ry="6.817820562119493" fill="rgb(249,168,38)"/><ellipse vector-effect="non-scaling-stroke" cx="513.1228568156824" cy="430.0213500798716" rx="6.6360550392872995" ry="6.817820562119493" fill="rgb(249,168,38)"/><ellipse vector-effect="non-scaling-stroke" cx="490.662362836556" cy="452.04815497287296" rx="6.636055039287328" ry="6.817820562119493" fill="rgb(63,61,86)"/><path d=" M 498.83 516.555 C 498.83 516.555 492.194 499.773 512.102 487.186 L 498.83 516.555 Z " fill="rgb(63,61,86)"/><path d=" M 490.669 516.251 C 490.669 516.251 487.648 498.404 464.273 498.557 L 490.669 516.251 Z " fill="rgb(63,61,86)"/></g></g></g></svg>