<?xml version="1.0" encoding="UTF-8"?>
<svg xmlns="http://www.w3.org/2000/svg" xmlns:xlink="http://www.w3.org/1999/xlink" width="16pt" height="16pt" viewBox="0 0 16 16" version="1.1">
<g id="surface1">
<path style=" stroke:none;fill-rule:nonzero;fill:rgb(100%,100%,100%);fill-opacity:1;" d="M 8.042969 0 C 8.039062 0.00390625 8.027344 0.00390625 8.015625 0.00390625 C 3.675781 0.00390625 0.144531 3.535156 0.144531 7.875 C 0.144531 9.648438 0.75 11.367188 1.855469 12.753906 L 0.710938 15.414062 C 0.617188 15.632812 0.71875 15.882812 0.933594 15.972656 C 1.011719 16.007812 1.097656 16.015625 1.179688 16.003906 L 5.378906 15.265625 C 6.21875 15.570312 7.101562 15.726562 7.996094 15.722656 C 12.335938 15.722656 15.867188 12.191406 15.867188 7.851562 C 15.875 3.523438 12.371094 0.00390625 8.042969 0 Z M 8 14.867188 C 7.171875 14.867188 6.351562 14.71875 5.574219 14.425781 C 5.503906 14.394531 5.425781 14.390625 5.347656 14.402344 L 1.8125 15.023438 L 2.75 12.847656 C 2.8125 12.695312 2.785156 12.519531 2.679688 12.398438 C 2.171875 11.808594 1.769531 11.140625 1.488281 10.414062 C 1.167969 9.605469 1.007812 8.742188 1.007812 7.871094 C 1.007812 4.003906 4.15625 0.859375 8.019531 0.859375 C 11.875 0.847656 15.007812 3.96875 15.011719 7.824219 C 15.011719 7.832031 15.011719 7.839844 15.011719 7.851562 C 15.011719 11.722656 11.863281 14.867188 8 14.867188 Z M 8 14.867188 "/>
<path style=" stroke:none;fill-rule:nonzero;fill:rgb(100%,100%,100%);fill-opacity:1;" d="M 7.664062 6.292969 L 5.347656 6.292969 C 5.113281 6.292969 4.917969 6.484375 4.917969 6.722656 C 4.917969 6.957031 5.113281 7.152344 5.347656 7.152344 L 7.664062 7.152344 C 7.898438 7.152344 8.09375 6.957031 8.09375 6.722656 C 8.09375 6.484375 7.898438 6.292969 7.664062 6.292969 Z M 7.664062 6.292969 "/>
<path style=" stroke:none;fill-rule:nonzero;fill:rgb(100%,100%,100%);fill-opacity:1;" d="M 10.667969 8.4375 L 5.347656 8.4375 C 5.113281 8.4375 4.917969 8.628906 4.917969 8.867188 C 4.917969 9.101562 5.113281 9.296875 5.347656 9.296875 L 10.667969 9.296875 C 10.902344 9.296875 11.09375 9.101562 11.09375 8.867188 C 11.09375 8.628906 10.902344 8.4375 10.667969 8.4375 Z M 10.667969 8.4375 "/>
</g>
</svg>
