<svg enable-background="new 0 0 512 512" height="512" width="512" xmlns="http://www.w3.org/2000/svg" style=""><rect id="backgroundrect" width="100%" height="100%" x="0" y="0" fill="none" stroke="none"/><g class="currentLayer" style=""><title>Layer 1</title><g id="svg_1" class="selected" fill="#ffffff" fill-opacity="1"><path d="m88 456c-8.837 0-16-7.164-16-16v-374c0-36.393 29.607-66 66-66h286c8.837 0 16 7.164 16 16v368c0 8.836-7.163 16-16 16s-16-7.164-16-16v-352h-270c-18.748 0-34 15.252-34 34v374c0 8.836-7.163 16-16 16z" id="svg_2" fill="#ffffff" fill-opacity="1"/><path d="m424 512h-280c-39.701 0-72-32.299-72-72s32.299-72 72-72h280c8.837 0 16 7.164 16 16s-7.163 16-16 16h-280c-22.056 0-40 17.944-40 40s17.944 40 40 40h280c8.837 0 16 7.164 16 16s-7.163 16-16 16z" id="svg_3" fill="#ffffff" fill-opacity="1"/><path d="m424 456h-280c-8.837 0-16-7.164-16-16s7.163-16 16-16h280c8.837 0 16 7.164 16 16s-7.163 16-16 16z" id="svg_4" fill="#ffffff" fill-opacity="1"/><path d="m160 400c-8.837 0-16-7.164-16-16v-368c0-8.836 7.163-16 16-16s16 7.164 16 16v368c0 8.836-7.163 16-16 16z" id="svg_5" fill="#ffffff" fill-opacity="1"/></g></g></svg>