<?xml version="1.0" encoding="UTF-8"?>
<svg xmlns="http://www.w3.org/2000/svg" xmlns:xlink="http://www.w3.org/1999/xlink" width="512pt" height="512pt" viewBox="0 0 512 512" version="1.1">
<g id="surface1">
<path style=" stroke:none;fill-rule:nonzero;fill:rgb(100%,100%,100%);fill-opacity:1;" d="M 48.761719 37.011719 C 46.078125 37.011719 43.886719 34.234375 43.886719 30.84375 C 43.886719 27.449219 46.078125 24.675781 48.761719 24.675781 C 51.445312 24.675781 53.636719 27.449219 53.636719 30.84375 C 53.636719 34.234375 51.445312 37.011719 48.761719 37.011719 Z M 48.761719 27.757812 C 47.300781 27.757812 46.324219 28.992188 46.324219 30.84375 C 46.324219 32.695312 47.300781 33.925781 48.761719 33.925781 C 50.226562 33.925781 51.199219 32.695312 51.199219 30.84375 C 51.199219 28.992188 50.226562 27.757812 48.761719 27.757812 Z M 48.761719 27.757812 "/>
<path style=" stroke:none;fill-rule:nonzero;fill:rgb(100%,100%,100%);fill-opacity:1;" d="M 57.296875 52.433594 C 56.5625 52.433594 56.078125 51.816406 56.078125 50.890625 L 56.078125 47.808594 C 56.078125 45.339844 54.371094 43.179688 52.417969 43.179688 L 45.105469 43.179688 C 44.375 43.179688 43.886719 42.5625 43.886719 41.636719 C 43.886719 40.714844 44.375 40.097656 45.105469 40.097656 L 52.417969 40.097656 C 55.832031 40.097656 58.515625 43.488281 58.515625 47.808594 L 58.515625 50.890625 C 58.515625 51.816406 58.027344 52.433594 57.296875 52.433594 Z M 57.296875 52.433594 "/>
<path style=" stroke:none;fill-rule:nonzero;fill:rgb(100%,100%,100%);fill-opacity:1;" d="M 9.753906 37.011719 C 7.070312 37.011719 4.875 34.234375 4.875 30.84375 C 4.875 27.449219 7.070312 24.675781 9.753906 24.675781 C 12.433594 24.675781 14.628906 27.449219 14.628906 30.84375 C 14.628906 34.234375 12.433594 37.011719 9.753906 37.011719 Z M 9.753906 27.757812 C 8.289062 27.757812 7.3125 28.992188 7.3125 30.84375 C 7.3125 32.695312 8.289062 33.925781 9.753906 33.925781 C 11.214844 33.925781 12.191406 32.695312 12.191406 30.84375 C 12.191406 28.992188 11.214844 27.757812 9.753906 27.757812 Z M 9.753906 27.757812 "/>
<path style=" stroke:none;fill-rule:nonzero;fill:rgb(100%,100%,100%);fill-opacity:1;" d="M 1.21875 52.433594 C 0.488281 52.433594 0 51.816406 0 50.890625 L 0 47.808594 C 0 43.488281 2.683594 40.097656 6.09375 40.097656 L 13.410156 40.097656 C 14.140625 40.097656 14.628906 40.714844 14.628906 41.636719 C 14.628906 42.5625 14.140625 43.179688 13.410156 43.179688 L 6.09375 43.179688 C 4.144531 43.179688 2.4375 45.339844 2.4375 47.808594 L 2.4375 50.890625 C 2.4375 51.816406 1.949219 52.433594 1.21875 52.433594 Z M 1.21875 52.433594 "/>
<path style=" stroke:none;fill-rule:nonzero;fill:rgb(100%,100%,100%);fill-opacity:1;" d="M 29.257812 38.554688 C 25.113281 38.554688 21.941406 34.542969 21.941406 29.300781 C 21.941406 24.058594 25.113281 20.046875 29.257812 20.046875 C 33.402344 20.046875 36.570312 24.058594 36.570312 29.300781 C 36.570312 34.542969 33.402344 38.554688 29.257812 38.554688 Z M 29.257812 23.132812 C 26.574219 23.132812 24.382812 25.910156 24.382812 29.300781 C 24.382812 32.695312 26.574219 35.46875 29.257812 35.46875 C 31.9375 35.46875 34.132812 32.695312 34.132812 29.300781 C 34.132812 25.910156 31.9375 23.132812 29.257812 23.132812 Z M 29.257812 23.132812 "/>
<path style=" stroke:none;fill-rule:nonzero;fill:rgb(100%,100%,100%);fill-opacity:1;" d="M 41.449219 58.601562 C 40.714844 58.601562 40.230469 57.984375 40.230469 57.058594 L 40.230469 50.890625 C 40.230469 48.425781 38.523438 46.265625 36.570312 46.265625 L 21.941406 46.265625 C 19.992188 46.265625 18.285156 48.425781 18.285156 50.890625 L 18.285156 57.058594 C 18.285156 57.984375 17.796875 58.601562 17.066406 58.601562 C 16.335938 58.601562 15.847656 57.984375 15.847656 57.058594 L 15.847656 50.890625 C 15.847656 46.574219 18.53125 43.179688 21.941406 43.179688 L 36.570312 43.179688 C 39.984375 43.179688 42.667969 46.574219 42.667969 50.890625 L 42.667969 57.058594 C 42.667969 57.984375 42.179688 58.601562 41.449219 58.601562 Z M 41.449219 58.601562 "/>
</g>
</svg>
