<svg version="1.1" xmlns="http://www.w3.org/2000/svg" xmlns:xlink="http://www.w3.org/1999/xlink" style="enable-background:new 0 0 512.001 512.001;" xml:space="preserve" width="512.0009765625" height="512.0009765625"><rect id="backgroundrect" width="100%" height="100%" x="0" y="0" fill="none" stroke="none"/>
















<g class="currentLayer" style=""><title>Layer 1</title><g id="svg_1" class="selected" fill="#b6eb7a" stroke="none" opacity="1" fill-opacity="1">
	<g id="svg_2" fill="#b6eb7a" fill-opacity="1" stroke="none" stroke-opacity="1" opacity="1">
		<path d="M507.608,4.395c-4.243-4.244-10.609-5.549-16.177-3.321L9.43,193.872c-5.515,2.206-9.208,7.458-9.42,13.395    c-0.211,5.936,3.101,11.437,8.445,14.029l190.068,92.181l92.182,190.068c2.514,5.184,7.764,8.455,13.493,8.455    c0.178,0,0.357-0.003,0.536-0.01c5.935-0.211,11.189-3.904,13.394-9.419l192.8-481.998    C513.156,15.001,511.851,8.638,507.608,4.395z M52.094,209.118L434.72,56.069L206.691,284.096L52.094,209.118z M302.883,459.907    l-74.979-154.599l228.03-228.027L302.883,459.907z" id="svg_3" fill="#b6eb7a" fill-opacity="1" stroke="none" stroke-opacity="1" opacity="1"/>
	</g>
</g><g id="svg_4">
</g><g id="svg_5">
</g><g id="svg_6">
</g><g id="svg_7">
</g><g id="svg_8">
</g><g id="svg_9">
</g><g id="svg_10">
</g><g id="svg_11">
</g><g id="svg_12">
</g><g id="svg_13">
</g><g id="svg_14">
</g><g id="svg_15">
</g><g id="svg_16">
</g><g id="svg_17">
</g><g id="svg_18">
</g></g></svg>